<mxfile host="app.diagrams.net" modified="2024-06-20T02:53:16.179Z" agent="Mozilla/5.0 (Windows NT 10.0; Win64; x64) AppleWebKit/537.36 (KHTML, like Gecko) Chrome/126.0.0.0 Safari/537.36" etag="uk6CDLq1NMn1wRg93Ufv" version="24.5.5" type="device">
  <diagram id="C5RBs43oDa-KdzZeNtuy" name="Page-1">
    <mxGraphModel dx="1674" dy="746" grid="1" gridSize="10" guides="1" tooltips="1" connect="1" arrows="1" fold="1" page="1" pageScale="1" pageWidth="827" pageHeight="1169" math="0" shadow="0">
      <root>
        <mxCell id="WIyWlLk6GJQsqaUBKTNV-0" />
        <mxCell id="WIyWlLk6GJQsqaUBKTNV-1" parent="WIyWlLk6GJQsqaUBKTNV-0" />
        <mxCell id="atduHn1AnPrkP0dm5V8h-0" value="Inicio" style="strokeWidth=2;html=1;shape=mxgraph.flowchart.start_1;whiteSpace=wrap;" parent="WIyWlLk6GJQsqaUBKTNV-1" vertex="1">
          <mxGeometry x="340.01" y="20" width="110" height="40" as="geometry" />
        </mxCell>
        <mxCell id="-Zy7s35o8aRVVqnt84Ex-1" style="edgeStyle=orthogonalEdgeStyle;rounded=0;orthogonalLoop=1;jettySize=auto;html=1;exitX=0.5;exitY=1;exitDx=0;exitDy=0;exitPerimeter=0;entryX=0.5;entryY=0;entryDx=0;entryDy=0;" edge="1" parent="WIyWlLk6GJQsqaUBKTNV-1" source="atduHn1AnPrkP0dm5V8h-1" target="-Zy7s35o8aRVVqnt84Ex-0">
          <mxGeometry relative="1" as="geometry" />
        </mxCell>
        <mxCell id="atduHn1AnPrkP0dm5V8h-1" value="&quot;Ingrese la velocidad en km/h: &quot;" style="strokeWidth=2;html=1;shape=mxgraph.flowchart.display;whiteSpace=wrap;" parent="WIyWlLk6GJQsqaUBKTNV-1" vertex="1">
          <mxGeometry x="326" y="80" width="138" height="60" as="geometry" />
        </mxCell>
        <mxCell id="atduHn1AnPrkP0dm5V8h-3" style="rounded=0;orthogonalLoop=1;jettySize=auto;html=1;exitX=0.5;exitY=1;exitDx=0;exitDy=0;exitPerimeter=0;entryX=0.5;entryY=0;entryDx=0;entryDy=0;entryPerimeter=0;" parent="WIyWlLk6GJQsqaUBKTNV-1" source="atduHn1AnPrkP0dm5V8h-0" target="atduHn1AnPrkP0dm5V8h-1" edge="1">
          <mxGeometry relative="1" as="geometry" />
        </mxCell>
        <mxCell id="atduHn1AnPrkP0dm5V8h-9" style="edgeStyle=orthogonalEdgeStyle;rounded=0;orthogonalLoop=1;jettySize=auto;html=1;exitX=0.5;exitY=1;exitDx=0;exitDy=0;entryX=0.5;entryY=0;entryDx=0;entryDy=0;" parent="WIyWlLk6GJQsqaUBKTNV-1" source="atduHn1AnPrkP0dm5V8h-6" target="atduHn1AnPrkP0dm5V8h-7" edge="1">
          <mxGeometry relative="1" as="geometry" />
        </mxCell>
        <mxCell id="atduHn1AnPrkP0dm5V8h-6" value="&#39;Metros_por_km&#39; = 1000" style="rounded=1;whiteSpace=wrap;html=1;" parent="WIyWlLk6GJQsqaUBKTNV-1" vertex="1">
          <mxGeometry x="318.75" y="210" width="152.5" height="30" as="geometry" />
        </mxCell>
        <mxCell id="atduHn1AnPrkP0dm5V8h-11" style="edgeStyle=orthogonalEdgeStyle;rounded=0;orthogonalLoop=1;jettySize=auto;html=1;exitX=0.5;exitY=1;exitDx=0;exitDy=0;entryX=0.5;entryY=0;entryDx=0;entryDy=0;" parent="WIyWlLk6GJQsqaUBKTNV-1" source="atduHn1AnPrkP0dm5V8h-7" target="atduHn1AnPrkP0dm5V8h-10" edge="1">
          <mxGeometry relative="1" as="geometry" />
        </mxCell>
        <mxCell id="atduHn1AnPrkP0dm5V8h-7" value="&#39;Segundos_en_hora&#39; = 3600" style="rounded=1;whiteSpace=wrap;html=1;" parent="WIyWlLk6GJQsqaUBKTNV-1" vertex="1">
          <mxGeometry x="318.75" y="260" width="152.5" height="30" as="geometry" />
        </mxCell>
        <mxCell id="atduHn1AnPrkP0dm5V8h-10" value="&#39;Metros_por_segundo&#39; = &#39;Velocidad_en_Kilometros&#39; * &#39;Metros_por_km&#39;/ &#39;Segundos_en_hora&#39;" style="rounded=1;whiteSpace=wrap;html=1;" parent="WIyWlLk6GJQsqaUBKTNV-1" vertex="1">
          <mxGeometry x="150" y="310" width="490" height="30" as="geometry" />
        </mxCell>
        <mxCell id="atduHn1AnPrkP0dm5V8h-12" value="&quot;&quot;Los m/s son:&amp;nbsp;&#39;Metros_por_segundo&#39; &quot;" style="strokeWidth=2;html=1;shape=mxgraph.flowchart.display;whiteSpace=wrap;" parent="WIyWlLk6GJQsqaUBKTNV-1" vertex="1">
          <mxGeometry x="289.38" y="360" width="211.25" height="70" as="geometry" />
        </mxCell>
        <mxCell id="atduHn1AnPrkP0dm5V8h-13" style="edgeStyle=orthogonalEdgeStyle;rounded=0;orthogonalLoop=1;jettySize=auto;html=1;exitX=0.5;exitY=1;exitDx=0;exitDy=0;entryX=0.5;entryY=0;entryDx=0;entryDy=0;entryPerimeter=0;" parent="WIyWlLk6GJQsqaUBKTNV-1" source="atduHn1AnPrkP0dm5V8h-10" target="atduHn1AnPrkP0dm5V8h-12" edge="1">
          <mxGeometry relative="1" as="geometry" />
        </mxCell>
        <mxCell id="atduHn1AnPrkP0dm5V8h-14" value="Fin" style="strokeWidth=2;html=1;shape=mxgraph.flowchart.terminator;whiteSpace=wrap;" parent="WIyWlLk6GJQsqaUBKTNV-1" vertex="1">
          <mxGeometry x="352.51" y="450" width="85" height="20" as="geometry" />
        </mxCell>
        <mxCell id="atduHn1AnPrkP0dm5V8h-15" style="edgeStyle=orthogonalEdgeStyle;rounded=0;orthogonalLoop=1;jettySize=auto;html=1;exitX=0.5;exitY=1;exitDx=0;exitDy=0;exitPerimeter=0;entryX=0.5;entryY=0;entryDx=0;entryDy=0;entryPerimeter=0;" parent="WIyWlLk6GJQsqaUBKTNV-1" source="atduHn1AnPrkP0dm5V8h-12" target="atduHn1AnPrkP0dm5V8h-14" edge="1">
          <mxGeometry relative="1" as="geometry" />
        </mxCell>
        <mxCell id="-Zy7s35o8aRVVqnt84Ex-2" style="edgeStyle=orthogonalEdgeStyle;rounded=0;orthogonalLoop=1;jettySize=auto;html=1;exitX=0.5;exitY=1;exitDx=0;exitDy=0;entryX=0.5;entryY=0;entryDx=0;entryDy=0;" edge="1" parent="WIyWlLk6GJQsqaUBKTNV-1" source="-Zy7s35o8aRVVqnt84Ex-0" target="atduHn1AnPrkP0dm5V8h-6">
          <mxGeometry relative="1" as="geometry" />
        </mxCell>
        <mxCell id="-Zy7s35o8aRVVqnt84Ex-0" value="&#39;Velocidad_en_Kilometros&#39;" style="shape=parallelogram;html=1;strokeWidth=2;perimeter=parallelogramPerimeter;whiteSpace=wrap;rounded=1;arcSize=12;size=0.23;" vertex="1" parent="WIyWlLk6GJQsqaUBKTNV-1">
          <mxGeometry x="304.38" y="155" width="181.25" height="40" as="geometry" />
        </mxCell>
      </root>
    </mxGraphModel>
  </diagram>
</mxfile>
